# xmcd
#
# Track frame offsets: 
#        150
#        18110
#        37835
#        51850
#        74637
#        97445
#        112592
#        130452
#        144325
#        158180
#        179312
#
# Disc length: 2782 seconds
#
# Revision: 0
# Processed by: cddbd v1.5.2PL0 Copyright (c) Steve Scherf et al.
# Submitted via: ExactAudioCopy v0.99pb5
#
DISCID=930adc0b
DTITLE=Николай Резанов и Братья Жемчужные - Достойно
DYEAR=1995
DGENRE=Chanson
TTITLE0=01 - Брат Жемчужный
TTITLE1=02 - Братва
TTITLE2=03 - Достойно
TTITLE3=04 - Березы
TTITLE4=05 - Осень Петербурга
TTITLE5=06 - Равенство
TTITLE6=07 - Кошмары
TTITLE7=08 - Фонарики
TTITLE8=09 - Пиво-Воды
TTITLE9=10 - Ах вы,груди...
TTITLE10=11 - Раз в Ростове-на-Дону
EXTD=
EXTT0=01.Брат Жемчужный
EXTT1=
EXTT2=
EXTT3=
EXTT4=
EXTT5=
EXTT6=
EXTT7=
EXTT8=
EXTT9=
EXTT10=
PLAYORDER=
